<?xml version="1.0" encoding="UTF-8" standalone="no"?>
<!-- Created with Inkscape (http://www.inkscape.org/) -->

<svg
   xmlns:dc="http://purl.org/dc/elements/1.1/"
   xmlns:cc="http://creativecommons.org/ns#"
   xmlns:rdf="http://www.w3.org/1999/02/22-rdf-syntax-ns#"
   xmlns:svg="http://www.w3.org/2000/svg"
   xmlns="http://www.w3.org/2000/svg"
   xmlns:sodipodi="http://sodipodi.sourceforge.net/DTD/sodipodi-0.dtd"
   xmlns:inkscape="http://www.inkscape.org/namespaces/inkscape"
   width="500mm"
   viewBox="0 0 500 359.10275"
   height="359.10275mm"
   version="1.1"
   inkscape:version="0.92.3 (2405546, 2018-03-11)"
   sodipodi:docname="AccessU1.svg">
  <defs />
  <sodipodi:namedview
     id="base"
     pagecolor="#ffffff"
     bordercolor="#666666"
     borderopacity="1.0"
     inkscape:pageopacity="0.0"
     inkscape:pageshadow="2"
     inkscape:zoom="0.175"
     inkscape:cx="295.99048"
     inkscape:cy="-132.95722"
     inkscape:document-units="mm"
     inkscape:current-layer="layer1"
     showgrid="false"
     inkscape:window-width="1842"
     inkscape:window-height="1051"
     inkscape:window-x="69"
     inkscape:window-y="-9"
     inkscape:window-maximized="1"
     fit-margin-top="0"
     fit-margin-left="0"
     fit-margin-right="0"
     fit-margin-bottom="0" />
  <metadata>
    <rdf:RDF>
      <cc:Work
         rdf:about="">
        <dc:format>image/svg+xml</dc:format>
        <dc:type
           rdf:resource="http://purl.org/dc/dcmitype/StillImage" />
        <dc:title></dc:title>
      </cc:Work>
    </rdf:RDF>
  </metadata>
  <g
     inkscape:label="Layer 1"
     inkscape:groupmode="layer"
     id="layer1">
    <path
       style="opacity:1;fill:#8c8c8c;fill-opacity:1;stroke:#000000;stroke-width:2.99077034;stroke-miterlimit:4;stroke-dasharray:none;stroke-opacity:1"
       d="M 374.42707,70.820276 492.02814,138.8803 c 4.36992,2.52907 5.32796,6.57454 6.13686,13.63006 0.80891,7.05553 0.67432,17.79896 -6.41081,21.4829 L 140.99007,356.37472 c -3.6661,1.9062 -24.59142,2.99227 -32.18251,-3.9251 L 3.7152128,256.68445 c -2.259906,-2.05933 -2.67968,-18.13086 -1.7749421,-20.67794 0.904747,-2.54708 2.4404381,-12.25355 19.9959613,-20.32433 L 336.49004,71.072696 c 12.66392,-4.68962 27.02141,-5.34071 37.93703,-0.25242 z"
       id="rect46-8"
       inkscape:connector-curvature="0"
       sodipodi:nodetypes="cszsssszscc" />
    <path
       sodipodi:nodetypes="cscccccscc"
       inkscape:connector-curvature="0"
       id="path854-3"
       d="M 374.42707,70.820276 492.02814,138.8803 c 3.81144,2.20585 5.02739,5.56525 5.81266,11.06925 -0.11684,3.30967 -6.31281,9.80163 -10.16263,12.25381 l -344.2515,177.46797 c -3.73147,1.77483 -25.27565,3.67555 -32.18251,-3.9251 L 1.9402707,236.00651 c 0.904747,-2.54708 2.4404381,-12.25355 19.9959613,-20.32433 L 336.49004,71.072696 c 12.66392,-4.68962 27.02141,-5.34071 37.93703,-0.25242 z"
       style="opacity:1;fill:#e5e5e5;fill-opacity:1;stroke:#000000;stroke-width:2.99077034;stroke-miterlimit:4;stroke-dasharray:none;stroke-opacity:1" />
    <path
       style="opacity:1;fill:#3e3e3e;fill-opacity:1;stroke:#000000;stroke-width:1.99384689;stroke-miterlimit:4;stroke-dasharray:none;stroke-opacity:1"
       d="m 50.675351,286.66978 11.502379,10.1115 c 3.11077,2.73461 3.52298,12.33105 0.32863,9.53055 L 50.511028,295.79537 c -3.14305,-2.75556 -2.895235,-11.81518 0.164323,-9.12559 z"
       id="rect856-7"
       inkscape:connector-curvature="0"
       sodipodi:nodetypes="sssss" />
    <path
       style="opacity:1;fill:#404040;fill-opacity:1;stroke:#000000;stroke-width:1.99384689;stroke-miterlimit:4;stroke-dasharray:none;stroke-opacity:1"
       d="m 368.48411,76.455176 a 6.100056,3.0790758 0 0 1 -6.10008,3.07907 6.100056,3.0790758 0 0 1 -6.10007,-3.07907 6.100056,3.0790758 0 0 1 6.10007,-3.07907 6.100056,3.0790758 0 0 1 6.10008,3.07907 z"
       id="path859-4"
       inkscape:connector-curvature="0" />
    <path
       style="opacity:1;fill:#3c3c3c;fill-opacity:1;stroke:#000000;stroke-width:2.99077034;stroke-miterlimit:4;stroke-dasharray:none;stroke-opacity:1"
       d="M 486.20819,161.66882 156.42524,332.97033 21.936232,215.68218 336.49004,71.072696 Z"
       id="path862-9"
       inkscape:connector-curvature="0"
       sodipodi:nodetypes="ccccc" />
    <path
       sodipodi:nodetypes="cccc"
       inkscape:connector-curvature="0"
       id="path963"
       d="M 21.936232,215.68218 336.49004,71.072696 484.73821,160.19884 Z"
       style="opacity:1;fill:#626262;fill-opacity:1;stroke:#000000;stroke-width:2.99077034;stroke-miterlimit:4;stroke-dasharray:none;stroke-opacity:1" />
    <g
       id="g926"
       transform="matrix(0.27093584,0,0,0.27093584,145.29105,1.6196709)">
      <path
         style="fill:#e54a3a;stroke:#000000;stroke-width:11.03866577;stroke-miterlimit:4;stroke-dasharray:none;stroke-opacity:1"
         d="M 250.01798,523.66668 C 200.22033,436.95001 154.99689,358.50001 149.52145,349.33335 c -11.45861,-19.18329 -17.06548,-30.97026 -23.43036,-49.25609 -15.98052,-45.91085 -16.16875,-97.16667 -0.53153,-144.74392 5.50137,-16.7383 19.52292,-44.41133 29.72561,-58.66667 84.86524,-118.574943 255.0476,-129.677691 353.28675,-23.048534 29.28679,31.787994 49.32033,72.429694 56.92275,115.478274 3.86122,21.86394 3.88454,54.99784 0.0537,76.38443 -5.237,29.23744 -14.70183,53.86608 -31.76598,82.65892 -5.82167,9.82313 -51.33864,88.81025 -101.1488,175.52692 -49.81015,86.71667 -90.90379,157.66668 -91.31919,157.66668 -0.4154,0 -41.49882,-70.95001 -91.29646,-157.66668 z M 363.22673,309.82216 c 34.93391,-8.90742 60.75122,-40.74074 63.00506,-77.68669 1.49422,-24.49378 -7.2863,-46.8858 -25.42227,-64.83166 -17.09937,-16.92015 -35.66339,-24.59773 -59.47618,-24.59773 -23.81278,0 -42.3768,7.67758 -59.47617,24.59773 -18.11307,17.92321 -26.93892,40.39657 -25.4078,64.6962 3.44189,54.62493 53.80305,91.32947 106.77736,77.82215 z"
         id="path930"
         inkscape:connector-curvature="0" />
    </g>
  </g>
</svg>
