<?xml version="1.0" encoding="UTF-8" standalone="no"?>
<!-- Created with Inkscape (http://www.inkscape.org/) -->

<svg
   xmlns:dc="http://purl.org/dc/elements/1.1/"
   xmlns:cc="http://creativecommons.org/ns#"
   xmlns:rdf="http://www.w3.org/1999/02/22-rdf-syntax-ns#"
   xmlns:svg="http://www.w3.org/2000/svg"
   xmlns="http://www.w3.org/2000/svg"
   xmlns:sodipodi="http://sodipodi.sourceforge.net/DTD/sodipodi-0.dtd"
   xmlns:inkscape="http://www.inkscape.org/namespaces/inkscape"
   width="161.24556mm"
   height="119.04737mm"
   viewBox="0 0 161.24556 119.04737"
   version="1.1"
   id="svg8"
   inkscape:version="0.92.3 (2405546, 2018-03-11)"
   sodipodi:docname="_accessu-3.svg">
  <metadata
     id="metadata34">
    <rdf:RDF>
      <cc:Work
         rdf:about="">
        <dc:format>image/svg+xml</dc:format>
        <dc:type
           rdf:resource="http://purl.org/dc/dcmitype/StillImage" />
        <dc:title></dc:title>
      </cc:Work>
    </rdf:RDF>
  </metadata>
  <defs
     id="defs2" />
  <sodipodi:namedview
     id="base"
     pagecolor="#ffffff"
     bordercolor="#666666"
     borderopacity="1.0"
     inkscape:pageopacity="0.0"
     inkscape:pageshadow="2"
     inkscape:zoom="0.90509668"
     inkscape:cx="228.94341"
     inkscape:cy="250.9261"
     inkscape:document-units="mm"
     inkscape:current-layer="layer1"
     showgrid="false"
     inkscape:window-width="1842"
     inkscape:window-height="1051"
     inkscape:window-x="69"
     inkscape:window-y="-9"
     inkscape:window-maximized="1"
     fit-margin-top="0"
     fit-margin-left="0"
     fit-margin-right="0"
     fit-margin-bottom="0" />
  <g
     inkscape:label="Layer 1"
     inkscape:groupmode="layer"
     id="layer1">
    <path
       style="opacity:1;fill:#f8ff2d;fill-opacity:1;stroke:none;stroke-width:1.32291663;stroke-miterlimit:4;stroke-dasharray:none;stroke-opacity:1"
       d="m 9.4791452,15.962416 34.5799758,12.740752 5.734226,-14.510683 15.688499,9.723583 9.576168,-24.206629 17.93041,17.087735 13.983036,-7.585741 2.30769,21.467135 32.55122,-20.230709 -9.45181,22.870799 29.08573,13.71791 -29.13668,12.27687 19.6032,13.30446 -18.10916,1.42673 9.46415,22.95704 -29.24522,-11.0219 -1.75192,28.256462 L 94.568804,87.555648 78.711084,112.69131 64.484042,96.148588 42.914713,118.75681 45.282289,92.768318 7.2347102,91.932438 18.143768,80.138008 0.21872816,77.950518 11.881902,59.113208 3.3349692,45.458368 18.664244,44.712288 Z"
       id="state-bg-3"
       inkscape:connector-curvature="0"
       sodipodi:nodetypes="ccccccccccccccccccccccccccccc" />
    <path
       sodipodi:nodetypes="ccccccccccccccccccccccccccccc"
       inkscape:connector-curvature="0"
       id="state-bg-2"
       d="m 75.430464,93.454558 -12.921126,19.949822 -1.384044,-21.433572 -20.70371,8.033252 -1.11474,-14.870612 -24.620397,1.89608 13.580259,-14.38645 -16.384804,-13.52987 17.762483,-4.24581 -11.800607,-25.38291 32.765153,6.8091 4.695436,-12.63556 10.394175,4.64675 9.098782,-21.623114 17.41533,15.968175 11.482376,-10.780754 3.28366,10.533685 25.6568,-14.941488 -0.57792,19.145836 22.21788,9.67336 -12.16885,10.92701 8.87212,13.92473 -11.70267,4.3716 5.3005,17.19437 -25.27346,-2.47582 2.00284,22.890192 -17.95977,-22.032402 -11.385666,23.889702 z"
       style="opacity:1;fill:#08b6bf;fill-opacity:1;stroke:none;stroke-width:1.30011427;stroke-miterlimit:4;stroke-dasharray:none;stroke-opacity:1" />
    <path
       style="opacity:1;fill:#01939a;fill-opacity:1;stroke:#000000;stroke-width:1.32291663;stroke-miterlimit:4;stroke-dasharray:none;stroke-opacity:1"
       d="M 69.388378,92.880558 56.240626,113.18028 54.832308,91.370788 33.765481,99.544928 32.63119,84.413508 7.5789822,86.342848 21.397422,71.704078 4.7252492,57.936908 22.799264,53.616628 10.791689,27.788538 44.131501,34.717058 48.909289,21.859886 59.485765,26.588138 68.74413,4.585783 86.464894,20.834019 98.148664,9.864185 101.48991,20.582617 127.5967,5.379074 l -0.58806,19.481624 22.60756,9.84302 -12.38228,11.11866 9.02773,14.16895 -11.90792,4.44827 5.39346,17.49594 -25.71672,-2.51924 2.03796,23.291652 -18.274756,-22.418822 -11.58536,24.308702 z"
       id="state-bg-1"
       inkscape:connector-curvature="0"
       sodipodi:nodetypes="ccccccccccccccccccccccccccccc" />
    <path
       style="font-style:normal;font-variant:normal;font-weight:normal;font-stretch:normal;font-size:85.33333588px;line-height:1;font-family:'BadaBoom BB';-inkscape-font-specification:'BadaBoom BB, Normal';font-variant-ligatures:normal;font-variant-caps:normal;font-variant-numeric:normal;font-feature-settings:normal;text-align:center;letter-spacing:0px;word-spacing:0px;writing-mode:lr-tb;text-anchor:middle;fill:#d2d579;fill-opacity:1;stroke:#000000;stroke-width:2;stroke-miterlimit:4;stroke-dasharray:none;stroke-opacity:1"
       d="m 155.2598,19.089612 -8.79326,0.799435 -0.48111,22.138182 5.66529,-1.22783 c 0.15707,-3.889388 0.54258,-7.565829 1.156,-11.029302 0.45577,-2.531861 1.27327,-6.092018 2.45308,-10.680485 z m -15.54375,3.474722 -12.48554,5.274614 -0.28216,-1.235583 -16.57056,6.457487 2.46083,7.409884 2.03037,-0.96325 c 0.6902,-0.32466 1.38375,-0.636 2.08101,-0.933791 l 1.91719,22.414134 6.34587,-3.560506 c -1.01735,-6.395627 -1.61552,-13.547209 -1.79472,-21.45502 1.26469,-0.463822 2.60755,-0.925755 3.99097,-1.386996 l 2.17868,23.589774 c 5.53616,-3.089299 10.19605,-5.302451 13.98054,-6.639904 l -1.44229,-7.63416 -7.21093,3.055112 -0.13023,-1.645897 c -0.0603,-0.558519 -0.10754,-1.120634 -0.14107,-1.6862 1.64072,-0.8612 3.9225,-1.962219 6.84454,-3.303159 l -1.09657,-5.657019 -6.08904,3.06183 -0.13797,-2.332675 c -0.0361,-0.794613 -0.0493,-1.609749 -0.0388,-2.44533 2.11159,-0.927293 4.45211,-1.857401 7.02179,-2.79001 z m -30.4369,8.114234 -11.712978,5.269963 c 0.008,9.991701 -0.641318,20.543546 -1.947682,31.655432 l 8.12508,-3.510381 -0.0837,-3.768762 2.56264,-1.231966 0.71727,5.196065 8.02586,-4.216278 c -3.05258,-11.088336 -4.94786,-20.886359 -5.68649,-29.394073 z m -13.52527,4.108278 -16.570563,6.458003 2.460831,7.409883 2.030368,-0.963766 c 0.690205,-0.324659 1.383749,-0.635484 2.081009,-0.933275 l 1.917194,22.413619 6.345867,-3.55999 C 93.001234,59.215692 92.403064,52.063595 92.223865,44.155781 93.87429,43.550494 95.625724,42.947482 97.478323,42.34659 Z m 7.55406,3.015318 2.1425,15.720489 -1.87947,0.881081 -0.30334,-16.591235 z m -28.460276,2.548165 c -0.348977,0.01191 -0.715333,0.08167 -1.099159,0.209291 -2.530038,0.864767 -5.053372,3.781039 -7.569562,8.748818 -2.463784,4.839161 -3.47894,8.796036 -3.045809,11.870076 0.199604,1.527115 0.914979,2.502242 2.146123,2.925922 0.636053,0.235206 1.451192,0.222564 2.445326,-0.03824 0.752322,-0.197368 1.801633,-0.630523 3.148129,-1.299662 1.366316,-0.703061 2.425782,-1.153456 3.178101,-1.350822 1.101614,-0.289007 1.740458,-0.09759 1.916679,0.574124 0.162121,0.61798 -0.216699,1.363496 -1.136364,2.236555 -0.646587,0.600395 -1.35822,1.117343 -2.134754,1.55081 -0.421521,0.254175 -0.847026,0.437576 -1.276924,0.550355 -0.967269,0.253759 -1.958594,0.198114 -2.973462,-0.167431 -0.653057,3.531306 -1.104106,6.191025 -1.352888,7.979355 1.547841,0.42674 3.020652,0.45698 4.417816,0.0904 1.531507,-0.40179 2.96663,-1.28077 4.305163,-2.63705 2.544053,-2.562797 4.306969,-5.366036 5.289084,-8.409308 0.76808,-2.326621 0.92655,-4.349811 0.475422,-6.069398 -0.140973,-0.537372 -0.328401,-1.033881 -0.562756,-1.489314 -0.784992,-1.459693 -2.306068,-1.893313 -4.563028,-1.301212 -0.886661,0.232613 -1.875869,0.621424 -2.967778,1.166336 -0.79063,0.379727 -1.441315,0.636569 -1.951818,0.770496 -0.940401,0.246713 -1.518179,0.125558 -1.732711,-0.363803 -0.311891,-0.750993 -0.22737,-1.634807 0.252698,-2.651 0.698085,-1.389288 1.544209,-2.214494 2.538346,-2.475302 0.698582,-0.183266 1.213313,0.35672 1.544609,1.619541 l 2.716112,-1.961639 C 77.916645,49.661314 78.835475,49.003718 79.61068,48.45574 79.434875,47.238278 79.223317,46.159127 78.976611,45.218727 78.10828,41.908853 76.732143,40.285999 74.847664,40.35029 Z m -19.799826,5.115449 -16.39538,6.389791 -0.499195,-2.646865 -12.913423,5.45548 2.784843,30.155266 c 5.536165,-3.0893 10.196573,-5.30245 13.981059,-6.63991 l -1.442807,-7.633638 -7.21093,3.054598 -0.130223,-1.6459 c -0.06037,-0.55852 -0.107053,-1.120641 -0.14056,-1.686201 1.640724,-0.861205 3.921988,-1.962216 6.844025,-3.303156 L 38.828673,61.30874 32.73964,64.370569 32.601665,62.037378 c -0.03616,-0.794615 -0.04878,-1.609748 -0.03824,-2.445329 2.111584,-0.927293 4.452114,-1.856894 7.021793,-2.789494 l -0.673862,-3.57291 2.027266,6.104022 2.030368,-0.963766 c 0.690205,-0.324659 1.383755,-0.635484 2.081011,-0.933275 l 1.917195,22.413614 6.345864,-3.55999 c -1.017352,-6.395623 -1.615519,-13.547728 -1.794722,-21.455534 1.650426,-0.605292 3.401857,-1.208299 5.254461,-1.809191 z m 95.094962,0.319363 c -0.53682,0.0062 -1.08843,0.128744 -1.65416,0.3669 -1.19366,0.48546 -2.19164,1.278403 -2.99413,2.379184 -0.98792,1.379167 -1.31954,2.686804 -0.99529,3.922757 0.23966,0.913535 0.83248,1.475857 1.77818,1.687238 0.79023,0.166018 1.65129,0.0553 2.58331,-0.332799 1.16679,-0.478406 2.15462,-1.254625 2.96416,-2.328539 1.0487,-1.366393 1.411,-2.667683 1.08676,-3.903636 -0.23966,-0.913535 -0.84593,-1.472568 -1.8185,-1.6769 -0.31169,-0.07977 -0.62823,-0.117938 -0.95033,-0.114205 z M 19.229869,54.941687 c -0.348977,0.01191 -0.71533,0.08167 -1.099155,0.209288 -2.530041,0.864767 -5.053375,3.781047 -7.569566,8.748821 -2.4637781,4.839161 -3.478934,8.795524 -3.0458085,11.869564 0.1996096,1.52711 0.9149797,2.50275 2.1461227,2.92643 0.6360558,0.23521 1.4511948,0.22257 2.4453288,-0.0382 0.752319,-0.19737 1.801633,-0.63104 3.148129,-1.30018 1.366317,-0.70306 2.425782,-1.15294 3.178101,-1.3503 1.101611,-0.28901 1.740458,-0.0976 1.916679,0.57412 0.162123,0.61798 -0.216699,1.3635 -1.136367,2.23656 -0.646589,0.6004 -1.35822,1.11735 -2.134754,1.55081 -0.421521,0.25417 -0.847545,0.43757 -1.27744,0.55035 -0.967266,0.25376 -1.958075,0.1976 -2.972945,-0.16795 -0.653055,3.53131 -1.104106,6.19103 -1.352889,7.979361 1.547842,0.42674 3.020653,0.45698 4.417819,0.0904 1.531507,-0.40178 2.966114,-1.280761 4.304647,-2.637041 2.544056,-2.5628 4.307488,-5.36552 5.2896,-8.40879 0.768075,-2.32662 0.926547,-4.34981 0.475422,-6.0694 -0.140978,-0.53737 -0.32892,-1.033875 -0.563274,-1.489313 -0.784993,-1.459703 -2.305553,-1.893323 -4.562512,-1.301223 -0.886661,0.232614 -1.876385,0.620906 -2.968294,1.165821 -0.790631,0.379724 -1.440797,0.636569 -1.951302,0.770496 -0.940396,0.246709 -1.518177,0.125558 -1.732712,-0.363803 -0.311891,-0.750988 -0.227888,-1.634286 0.252183,-2.650484 0.698084,-1.389288 1.544208,-2.214494 2.538346,-2.475302 0.698579,-0.183266 1.213829,0.356204 1.545124,1.619023 l 2.716115,-1.961637 c 1.062387,-0.766913 1.98121,-1.424503 2.756421,-1.97249 -0.175808,-1.217459 -0.387361,-2.296094 -0.634071,-3.236494 -0.868328,-3.309869 -2.244466,-4.932728 -4.128948,-4.868437 z"
       id="state-text"
       inkscape:connector-curvature="0" />
  </g>
</svg>
