<?xml version="1.0" encoding="UTF-8" standalone="no"?>
<!-- Created with Inkscape (http://www.inkscape.org/) -->

<svg
   xmlns:svg="http://www.w3.org/2000/svg"
   xmlns="http://www.w3.org/2000/svg"
   xmlns:sodipodi="http://sodipodi.sourceforge.net/DTD/sodipodi-0.dtd"
   xmlns:inkscape="http://www.inkscape.org/namespaces/inkscape"
   version="1.1"
   viewBox="0 0 371 330.95697"
   width="100%"
   height="100%"
   inkscape:version="0.92.3 (2405546, 2018-03-11)"
   sodipodi:docname="_accessu-2.svg">
  <defs
     id="defs14" />
  <sodipodi:namedview
     pagecolor="#ffffff"
     bordercolor="#666666"
     borderopacity="1"
     objecttolerance="10"
     gridtolerance="10"
     guidetolerance="10"
     inkscape:pageopacity="0"
     inkscape:pageshadow="2"
     inkscape:window-width="1842"
     inkscape:window-height="1051"
     id="namedview12"
     showgrid="false"
     fit-margin-top="0"
     fit-margin-left="0"
     fit-margin-right="0"
     fit-margin-bottom="0"
     inkscape:zoom="1.8982301"
     inkscape:cx="203.46945"
     inkscape:cy="160.35218"
     inkscape:window-x="69"
     inkscape:window-y="-9"
     inkscape:window-maximized="1"
     showguides="false" />
  <path
     style="opacity:1;fill:#61dafb;fill-opacity:1;stroke:#000000;stroke-width:3;stroke-miterlimit:4;stroke-dasharray:none;stroke-opacity:1"
     d="m 78.08316,101.74996 c -28.135559,10.90759 -60.453649,22.07833 -75.7748414,50.21143 -7.7942503,17.72133 2.8880872,37.00221 17.6247514,47.21441 21.402937,16.88078 47.650428,26.48802 73.628965,33.75138 47.725825,8.43401 96.945465,16.2607 145.111895,6.3056 25.89846,-3.50029 51.84579,-8.12895 75.80298,-19.04623 21.80819,-9.17914 45.57882,-21.77392 55.34964,-44.57971 6.42412,-19.20226 -7.26122,-37.11195 -22.35721,-47.4117 C 325.80474,112.57061 299.99852,103.39868 274.25759,97.141589 244.27607,90.982118 213.77387,86.362864 183.0937,87.925894 147.56448,86.254643 112.45434,93.56832 78.08316,101.74996 Z m 107.99887,3.43156 c 46.73476,-0.94304 94.05837,7.73351 136.50062,27.56981 13.90121,7.53887 32.33798,17.50751 31.52813,35.69948 -5.65029,16.11588 -22.82028,24.85855 -37.19748,32.2919 -56.10436,23.77852 -118.71321,29.0032 -178.85496,22.31908 C 107.90383,218.23787 77.490896,211.52531 49.740214,198.46394 36.595578,191.41762 21.478326,182.65311 16.853098,167.60116 16.664265,148.86607 36.837554,138.73968 51.384595,131.40422 93.503868,112.40204 140.00506,104.20238 186.08203,105.18152 Z"
     id="react-ring-mid-b"
     inkscape:connector-curvature="0" />
  <path
     style="opacity:1;fill:#61dafb;fill-opacity:1;stroke:#000000;stroke-width:3;stroke-miterlimit:4;stroke-dasharray:none;stroke-opacity:1"
     d="m 183.83823,290.24249 c 23.52137,18.90318 49.36324,41.29608 81.38751,40.48562 19.24282,-2.11804 30.59211,-21.01311 32.0613,-38.8816 3.90681,-26.97467 -0.90548,-54.50511 -7.61408,-80.62973 C 273.1402,165.7889 255.34149,119.39022 222.79061,82.69539 206.98091,62.565784 190.63577,42.578385 169.68812,27.510011 150.74659,12.922362 128.10579,-1.5150698 103.23608,0.39495529 82.652377,3.7148541 73.227243,25.045569 71.951644,43.768035 c -2.688631,26.575405 2.281832,53.508284 9.743358,78.926235 9.667683,29.04025 20.929158,57.76084 37.632658,83.54222 16.32953,31.59904 40.22921,58.33956 64.51057,84.006 z M 132.77364,195.01676 C 108.57403,155.02418 92.408765,109.70873 88.348246,63.036079 87.920357,47.22801 87.326934,26.277203 103.48331,17.876306 c 16.78067,-3.171168 32.94112,7.320877 46.57057,16.049926 48.65925,36.679647 84.5084,88.274268 108.81217,143.691178 10.91069,28.5223 20.31543,58.2133 22.89117,88.77578 0.47582,14.90657 0.45095,32.38077 -10.26735,43.91646 -16.03154,9.50408 -34.80934,-2.76617 -48.39593,-11.62046 -37.60821,-27.00036 -68.08234,-63.19572 -90.3203,-103.67243 z"
     id="react-ring-left-b"
     inkscape:connector-curvature="0" />
  <path
     style="opacity:1;fill:#61dafb;fill-opacity:1;stroke:#000000;stroke-width:3;stroke-miterlimit:4;stroke-dasharray:none;stroke-opacity:1"
     d="m 76.27192,226.63293 c -4.662216,29.81357 -11.192962,63.37834 5.473102,90.73621 11.428287,15.62579 33.465798,16.04568 49.688348,8.41226 25.3317,-10.0595 46.79897,-27.95451 66.10221,-46.79273 31.14042,-36.97722 62.49122,-75.53595 78.07607,-122.04614 9.56954,-23.73967 18.74891,-47.87261 21.36968,-73.543437 3.20405,-23.692091 4.43387,-50.516207 -9.61901,-71.123661 C 274.22372,-3.9136934 251.03386,-1.4514055 234.16747,6.7755738 209.78901,17.69213 188.91855,35.426541 170.60314,54.565308 c -20.35583,22.856918 -39.6401,46.936142 -53.6636,74.267922 -19.253309,29.90761 -30.521155,63.95592 -40.66762,97.7997 z m 57.09653,-91.73613 c 22.60657,-40.914183 53.83246,-77.516777 92.26894,-104.302247 13.49073,-8.250954 31.35719,-19.208973 46.69357,-9.390684 11.11394,12.966408 10.07406,32.206 9.30085,48.372649 -7.54191,60.466832 -34.3992,117.263412 -70.3252,165.956642 -19.28723,23.6763 -40.3383,46.62968 -65.54898,64.09739 -12.68533,7.84312 -27.84612,16.53211 -43.18928,12.99074 C 86.337843,303.46114 87.614551,281.06617 88.517686,264.87425 93.177359,218.81251 109.36435,174.35176 133.36845,134.8968 Z"
     id="react-ring-right"
     inkscape:connector-curvature="0" />
  <path
     style="fill:#61dafb;fill-opacity:1;stroke:#000000;stroke-width:3;stroke-miterlimit:4;stroke-dasharray:none;stroke-opacity:1"
     d="m 185.51248,131.50084 c -21.14742,-1.31637 -39.946,20.88696 -34.59118,41.5451 3.70966,17.68441 22.66568,30.65927 40.48341,26.58499 17.15473,-3.10878 30.59193,-20.5689 27.61941,-38.063 -2.08339,-16.47804 -16.66714,-30.24626 -33.51164,-30.06709 z"
     id="react-circle"
     inkscape:connector-curvature="0" />
  <path
     style="opacity:1;fill:#61dafb;fill-opacity:1;stroke:#000000;stroke-width:3;stroke-miterlimit:4;stroke-dasharray:none;stroke-opacity:1"
     d="m 0.9453125,173.44141 c 2.8373237,10.30303 10.1880005,19.63596 18.9882815,25.73437 21.402937,16.88078 47.650369,26.48859 73.628906,33.75195 47.72583,8.43401 96.9449,16.25979 145.11133,6.30469 25.89846,-3.50029 51.84554,-8.12764 75.80273,-19.04492 21.80819,-9.17914 45.57879,-21.77429 55.34961,-44.58008 0.2422,-0.72395 0.44678,-1.44607 0.63281,-2.16601 H 351.875 c -7.11607,13.0032 -22.1444,20.67433 -34.96094,27.30078 C 260.8097,224.52071 198.20034,229.74662 138.05859,223.0625 107.90408,218.23858 77.490916,211.52621 49.740234,198.46484 38.3966,192.38397 25.589111,185.01818 19.318359,173.44141 Z"
     id="react-ring-mid-f"
     inkscape:connector-curvature="0" />
  <path
     style="opacity:1;fill:#61dafb;fill-opacity:1;stroke:#000000;stroke-width:3;stroke-miterlimit:4;stroke-dasharray:none;stroke-opacity:1"
     d="M 92.707031,4.0898438 C 79.371083,11.715867 72.984778,28.596938 71.951172,43.767578 c -2.688631,26.575405 2.282615,53.50783 9.74414,78.925782 9.667683,29.04025 20.929318,57.76159 37.632808,83.54297 16.32954,31.59904 40.22841,58.33942 64.50977,84.00586 23.52137,18.90318 49.3644,41.29679 81.38867,40.48633 4.99641,-0.54995 9.45427,-2.23979 13.35156,-4.74024 l -8.58007,-14.86133 c -15.69382,7.93188 -33.73691,-3.8564 -46.9043,-12.4375 C 185.48554,271.68909 155.0114,235.49429 132.77344,195.01758 108.57383,155.025 92.408175,109.70781 88.347656,63.035156 87.939329,47.949782 87.392798,28.189853 101.38281,19.113281 Z"
     id="react-ring-left-f"
     inkscape:connector-curvature="0" />
</svg>
